<?xml version="1.0" standalone="no"?>
<!DOCTYPE svg PUBLIC "-//W3C//DTD SVG 20010904//EN"
 "http://www.w3.org/TR/2001/REC-SVG-20010904/DTD/svg10.dtd">
<svg version="1.0" xmlns="http://www.w3.org/2000/svg"
 width="449.000000pt" height="200.000000pt" viewBox="0 0 449.000000 200.000000"
 preserveAspectRatio="xMidYMid meet">
<metadata>
Created by potrace 1.16, written by Peter Selinger 2001-2019
</metadata>
<g transform="translate(0.000000,200.000000) scale(0.100000,-0.100000)"
fill="#000000" stroke="none">
<path d="M0 1000 l0 -1000 2245 0 2245 0 0 1000 0 1000 -2245 0 -2245 0 0
-1000z m366 379 c38 -11 73 -25 78 -29 4 -4 5 -27 1 -49 l-7 -41 -52 0 c-80 0
-125 45 -111 112 8 34 5 33 91 7z m-165 -315 c22 -27 66 -44 114 -44 25 0 45
-3 45 -7 0 -5 -9 -37 -21 -73 -11 -36 -36 -116 -55 -178 -43 -139 -58 -152
-171 -152 -52 0 -73 4 -73 13 -1 20 134 457 141 457 4 0 12 -7 20 -16z"/>
</g>
</svg>
