<?xml version="1.0" standalone="no"?>
<!DOCTYPE svg PUBLIC "-//W3C//DTD SVG 20010904//EN"
 "http://www.w3.org/TR/2001/REC-SVG-20010904/DTD/svg10.dtd">
<svg version="1.0" xmlns="http://www.w3.org/2000/svg"
 width="189.000000pt" height="45.000000pt" viewBox="0 0 189.000000 45.000000"
 preserveAspectRatio="xMidYMid meet">
<metadata>
Created by potrace 1.16, written by Peter Selinger 2001-2019
</metadata>
<g transform="translate(0.000000,45.000000) scale(0.100000,-0.100000)"
fill="#000000" stroke="none">
<path d="M250 441 c0 -10 -227 -401 -241 -415 -20 -22 -5 -27 78 -24 l88 3 37
64 c20 35 41 68 46 73 6 6 26 -18 53 -66 l43 -76 88 0 88 0 -49 83 -49 82 -80
5 -80 5 39 67 39 66 -41 71 c-36 64 -59 87 -59 62z"/>
<path d="M638 256 c-27 -46 -48 -86 -48 -90 0 -15 40 -4 50 14 8 15 21 20 49
20 30 0 40 -4 44 -20 4 -16 14 -20 44 -20 33 0 42 5 57 31 l19 31 19 -31 c11
-17 29 -31 39 -31 24 0 24 3 -7 50 l-27 40 27 34 c31 41 32 46 7 46 -11 0 -28
-12 -38 -26 l-19 -26 -17 26 c-10 14 -26 26 -37 26 -26 0 -25 -4 6 -46 l26
-34 -23 -35 c-13 -19 -26 -35 -29 -35 -3 0 -24 36 -48 80 -24 44 -44 80 -45
80 -1 0 -23 -38 -49 -84z"/>
<path d="M1540 250 c0 -83 2 -90 19 -90 17 0 20 8 23 51 l3 52 50 -44 c93 -82
85 -84 85 20 0 84 -2 91 -19 91 -17 0 -20 -8 -23 -51 l-3 -51 -62 56 c-33 31
-64 56 -67 56 -3 0 -6 -40 -6 -90z"/>
<path d="M1230 245 l0 -85 38 0 c21 0 48 7 60 16 23 16 30 58 12 69 -6 4 -8
15 -5 25 9 28 -28 60 -70 60 l-35 0 0 -85z"/>
<path d="M1740 245 c0 -78 2 -85 20 -85 16 0 20 7 20 35 l0 36 31 -36 c19 -22
40 -35 55 -35 33 0 30 8 -16 55 l-40 41 40 29 c22 17 40 33 40 38 0 19 -47 4
-77 -25 l-33 -32 0 32 c0 25 -4 32 -20 32 -18 0 -20 -7 -20 -85z"/>
</g>
</svg>
