<?xml version="1.0" standalone="no"?>
<!DOCTYPE svg PUBLIC "-//W3C//DTD SVG 20010904//EN"
 "http://www.w3.org/TR/2001/REC-SVG-20010904/DTD/svg10.dtd">
<svg version="1.0" xmlns="http://www.w3.org/2000/svg"
 width="225.000000pt" height="225.000000pt" viewBox="0 0 225.000000 225.000000"
 preserveAspectRatio="xMidYMid meet">
<metadata>
Created by potrace 1.16, written by Peter Selinger 2001-2019
</metadata>
<g transform="translate(0.000000,225.000000) scale(0.100000,-0.100000)"
fill="#000000" stroke="none">
<path d="M182 1273 c33 -73 52 -102 61 -96 6 3 7 1 3 -6 -6 -9 45 -120 110
-240 10 -20 12 -20 45 8 l34 29 -29 61 c-25 52 -32 59 -45 48 -14 -10 -14 -10
-3 4 14 19 -1 75 -18 64 -6 -4 -7 1 -3 11 5 13 3 15 -7 9 -8 -5 -11 -4 -6 3 4
6 -5 34 -19 62 l-25 50 -51 0 c-28 0 -49 -3 -47 -7z"/>
<path d="M548 1273 c-32 -5 -32 -4 -17 -37 11 -23 16 -25 54 -19 53 7 87 -10
83 -40 -2 -17 -10 -22 -33 -23 -72 -2 -86 -5 -105 -24 -29 -29 -28 -99 3 -128
20 -19 35 -22 115 -22 l92 0 0 110 c0 78 -4 119 -15 139 -22 44 -82 58 -177
44z"/>
<path d="M854 1266 c-43 -19 -57 -59 -52 -157 3 -74 6 -83 31 -105 23 -20 39
-24 88 -24 59 0 59 0 59 30 0 29 -2 30 -45 30 -54 0 -65 16 -65 93 0 67 21 91
75 85 34 -4 35 -3 35 29 0 33 0 33 -47 33 -27 -1 -62 -7 -79 -14z"/>
<path d="M1081 1271 c-13 -3 -33 -18 -44 -33 -39 -52 -34 -186 8 -232 21 -22
32 -26 84 -26 51 0 61 3 66 20 9 29 -2 40 -43 40 -54 0 -65 11 -69 72 -6 77
11 103 67 104 44 1 57 15 43 50 -5 15 -68 18 -112 5z"/>
<path d="M1298 1264 c-46 -20 -63 -59 -62 -140 2 -103 30 -137 120 -142 59 -4
65 -2 93 25 50 50 55 186 8 238 -29 32 -106 42 -159 19z m103 -65 c18 -18 21
-30 17 -81 -3 -44 -10 -64 -23 -74 -25 -19 -38 -18 -66 5 -21 16 -24 28 -24
81 0 49 4 64 19 76 28 20 53 17 77 -7z"/>
<path d="M1578 1273 l-28 -4 0 -210 c0 -115 2 -209 5 -209 4 0 19 7 35 15 27
14 30 20 30 65 l0 50 45 0 c94 0 137 49 138 156 0 74 -18 109 -68 130 -33 13
-96 16 -157 7z m132 -71 c18 -14 22 -28 22 -72 -1 -47 -5 -58 -27 -77 -14 -13
-39 -23 -56 -23 l-29 0 0 88 c0 49 3 92 7 95 13 13 61 7 83 -11z"/>
<path d="M1911 1269 c-35 -14 -50 -39 -51 -81 0 -49 29 -76 91 -84 36 -5 50
-12 55 -26 13 -41 -48 -64 -98 -37 -18 10 -24 8 -39 -12 -17 -23 -17 -24 4
-36 23 -13 116 -17 153 -7 34 9 59 65 48 105 -10 36 -35 52 -99 66 -34 7 -40
12 -40 33 0 23 3 25 50 25 28 0 56 4 63 8 52 34 -68 74 -137 46z"/>
</g>
</svg>
